<?xml version="1.0" encoding="utf-8"?>

<!DOCTYPE svg PUBLIC "-//W3C//DTD SVG 1.1//EN" "http://www.w3.org/Graphics/SVG/1.1/DTD/svg11.dtd">
<svg version="1.1" id="Layer_1" xmlns="http://www.w3.org/2000/svg" xmlns:xlink="http://www.w3.org/1999/xlink" x="0px" y="0px"
	 viewBox="147.2947 3.6276 1243.2743 1488.4193" enable-background="new 147.2947 3.6276 1243.2743 1488.4193" xml:space="preserve"
	>
<path d="M1151.88,32.91c14.66-4.38,29.87-6.84,45.13-7.84c14.86-0.98,29.8,1.03,44.1799,4.74c15.1001,3.99,29,13.71,36.2301,27.78
	c9,17.35,13.2699,36.92,14.2799,56.36c0.6801,11.53-2.73,22.84-7.5199,33.2c-3.5801,8.33-8.55,15.99-11.89,24.42
	c-2.02,7.58-5.37,15.31-3.78,23.3c1.23,5.54,4.6899,10.21,7.72,14.9c6.37,9.52,12.99,18.98,17.5701,29.54
	c9.11,20.45,17.3099,41.3,25.72,62.04c6.36,15.23,11.62,30.97,19.63,45.45c4.66,8.67,9.23,17.58,11.14,27.32
	c2.59,10.9,0.25,22.09-1.1901,32.98c-7.28,44.75-16.73,89.4-17.9,134.87c-0.37,21.4,1.3201,42.76,2.89,64.08
	c4.24,51.42,10.0801,102.68,15.85,153.93c2.42,21.99,5.0801,43.96,7.02,66c2.2201,26-1.13,52.01-1.22,78.01
	c-0.12,9.36,3.21,18.17,6.04,26.93c3.2899,10.02,2.5599,20.69,2.11,31.06c-0.6801,11.68-1.77,23.33-2.62,35
	c-0.35,2.87,1.77,5.24,1.99,8.02c-0.23,2.13-2.71,1.72-4.16,1.59c-10.84-1.51-21.5399-3.95-32.11-6.72
	c-12.21-3.54-23.83-8.81-35.49-13.8c2.1,16.08,5.75,31.9,8.5601,47.8699c4.7899,25.88,9.49,51.8201,12.2599,78.02
	c5.6901,52.51,6.3301,105.4,11.2201,157.98c2.25,25.4,4.3199,50.8201,5.64,76.29c1.5199,24.85,3.1399,49.8201,0.5299,74.66
	c-1.73,12.0599,1.1801,24,2.5701,35.92c1.4299,11.6499,2.5599,23.6,0.0699,35.1899H194.18c-2.95-2.41-5.76-4.99-8.95-7.0699
	c0.6-0.64,1.19-1.25,1.79-1.8401c4.11,0.79,7.56,3.99,11.91,3.5801c-0.25-1.13-0.33-2.4801-1.7-2.7301
	c-6.46-2.62-13.09-4.8099-19.65-7.1499c5.56-2.91,11.8-4.16,17.51-6.7201c-5.89,1.6001-11.56,3.91-17.33,5.89
	c-1.33,0.3101-4.56,2.2001-4.15-0.72c13.73-5.4,27.86-9.83,41.72-14.92c20.68-7.2899,41.34-14.6599,61.96-22.12
	c23.27-8.4199,47.44-13.97,70.86-21.9299c16.09-5.52,31.88-12.41,45.86-22.22c12.71-8.7201,23.99-19.4301,33.74-31.3401
	c11.59-14.12,22.13-29.09,34.3-42.73c25.82-29.2,52.51-57.74,75.75-89.1c25.02-33.4,45.41-69.98,63.46-107.54
	c17.83-35.98,34.92-72.4199,48.67-110.18c3.73-9.87,9.1-19.06,12.44-29.08c1.17-3.97,2.41-8.67-0.02-12.41
	c-2.04-2.97-6-3.41-9.3-3.27c-9.83,0.66-19.28,3.87-29.1,4.71c-5.98,0.75-12-0.03-18-0.03c-10.28-0.18-20.6-0.35-30.78-1.84
	c-5.11-0.92-10.81-2.01-14.31-6.22c-4.31-4.92-5.29-11.69-5.59-17.99c-0.13-5.5-0.34-11.11,1.14-16.47
	c4.8701-19.58,10.51-38.96,15.94-58.39c21.4301-75.48,43.5-150.77,64.64-226.33c5.37-19.4301,10.81-38.83,15.6-58.41
	c5.94-25.77,8.5099-52.15,10.65-78.46c1.97-23.7,5.53-47.21,8.28-70.82c3.11-25.46,6.04-50.95,10.35-76.23
	c2.53-15.24,6.04-30.35,11.15-44.94c7.68-22.38,18.77-43.43,25.99-65.98c6.69-19.55,10.91-39.93,19.15-58.94
	c4.47-9.65,9.1-19.26,14.4301-28.48c5.79-10.08,13.09-19.66,23.05-25.94c8.71-5.87,19.09-8.34,29.27-10.27
	c11.83-2.47,23.98-3.18,36.04-2.68c6.57,0.43,13.51,0.74,19.38,4.05c6.31,3.47,10.48,9.69,16.68,13.3
	c5.13,3.13,11.31,4.1,16.21,7.64c3.3,2.3,5.76,5.54,8.1801,8.71c4.7599,6.41,9.14,13.11,13.06,20.06c1.25,2.4,2.71,4.81,3.07,7.54
	c-0.32,4.33-4.3101,6.79-6.36,10.23c-0.89,4.2-0.28,8.53-0.46,12.79c0.15,7.68-5.5,14.31-4.47,22.07
	c1.01,6.11,4.26,11.51,6.48,17.22c1.63,3.94-2.6899,8.24-6.65,7.73c-2.92,0.3-6.23-1.24-8.86,0.18c-1.84,4.03,0.67,8.53,0.23,12.8
	c0.09,2.62-2.52,3.88-4.18,5.41c0.54,2.01,1.94,4.3,0.51,6.27c-0.8,1.68-2.54,3.23-1.78,5.28c0.22,2.36,1.53,4.86,0.47,7.18
	c-1.33,3.06-4.58,4.83-7.68,5.57c-11.8701,1.69-23.9901,1.64-35.7401,4.08c-2.98,0.63-2,4.42-1.35,6.49
	c0.96,4.28,5.09,6.36,8.45,8.56c7.72,4.81,15.61,9.36,23.67,13.57c2.24,1.45,5.99-0.37,7.3,2.56c2.59,5.94,4.31,12.24,6.36,18.39
	c8.64,27.86,17.89,55.55,25.55,83.71c3.65,12.44,2.73,25.74,6.97,38.04c4.03,11.73,8.39,23.75,16.42,33.42
	c5.46,6.6,13.17,10.71,20.84,14.21c4.67,2.03,9.07,4.64,13.87,6.38c3.12,1.27,6.52,2.34,8.93,4.82c2.49,2.77,2.97,6.61,4.39,9.94
	c1.04-4.17,1.39-8.82,4.26-12.25c3.03-3.38,6.77-6.02,10.35-8.8c8.23-6.02,16.08-12.59,24.72-18.04
	c9.65-6.26,19.4299-12.37,28.35-19.65c5.71-4.68,11.0601-10.09,14.17-16.89c4.3199-8.79,4.7799-18.74,7.1599-28.1
	c2.65-10.88,7.87-20.86,12.92-30.78c5.15-10.09,8.92-20.97,10.25-32.26c1.12-10.08,1.15-20.32,3.5601-30.22
	c3.88-16.3,8.7699-32.36,14.61-48.06c6.0299-16.65,15.38-31.92,26.1599-45.89c3.05-4.5,8.7101-5.28,13.0801-7.91
	c6.0699-3.52,12.34-6.8,17.88-11.14c4.2999-3.14,3.97-9.55,1.97-13.92c-13.72,3.85-26.0601,11.35-39.2,16.71
	c-3.04,1-6.6801,0.04-8.51-2.66c-2.12-2.98-4.7201-6.16-4.26-10.07c-3.3101-1.54-4.9-5.29-3.6901-8.75
	c-3.72-0.1-5.8099-4.27-3.84-7.37c-0.63-0.88-1.25-1.76-1.86-2.62c0.88-4.72,1.6-9.46,2.3099-14.2
	c-0.0499-1.51,0.91-3.32-0.0199-4.65c-3.54-1.26-7.4901-1.4-10.7001-3.46c-1.62-0.98-2.5499-2.96-1.85-4.79
	c2.75-9.78,8.34-18.48,11.35-28.17c1.36-3.92-0.66-7.79-2.46-11.17c-2.54-4.45-3.01-9.64-3.8-14.61
	c-0.9-6.94-0.59-14.54,3.3301-20.6c2.1599-3.69,5.23-6.7,7.7899-10.11c-3.27,1.77-5.88,4.84-9.58,5.69
	c-2.9301-0.38-3.3201-3.88-4.33-6.06c-0.75-2.76-5.3-2.68-5.13-5.98c0.8899-4.12,2.73-7.97,3.61-12.1c-2.53-1.63-8.49,0.2-8.15-3.96
	c5.75-8.16,13.5699-14.66,21.16-21.06C1130.83,41.76,1140.83,35.89,1151.88,32.91 M933.54,594.02
	c11.9901,65.5,22.29,131.31,32.85,197.06c7.06,44.43,13.87,88.91,20.22,133.45c6.63,47.35,13.02,94.77,16.78,142.45
	c4.86,56.96,6.78,114.12,10.83,171.13c1.4901,20.78,4.03,41.47,7.86,61.96c5.0099,27.78,10.67,55.4701,17.7599,82.8101
	c2.03,7.21,3.77,14.59,6.88,21.4399c0.5901,1.76,2.47,2.4,4.16,2.62c5.8099,0.1101,11.38-3.1499,17.23-1.83
	c5.28,1.39,8.55,6.0601,12.79,9.12c5.13,2.98,11.28,4.3101,17.1799,3.4401c13.38-1.5,26.7301-3.37,40.0601-5.25
	c-5.53-1.38-11.28-1.9401-16.67-3.92c-5.14-1.8199-11.08-4.11-13.38-9.48c-1-4.59,0.99-9.11,2.6-13.3101
	c5.8-13.71,13.7201-26.37,20.1201-39.7899c2.0499-4.4601,4.21-8.9701,5.0599-13.8301c2.66-14.84-4.11-29.26-2.95-44.11
	c1.49-24.38,4.75-48.63,5.89-73.04c2.3799-52.25-5.05-104.22-9.9501-156.11c-7.52-73.7599-16.73-147.35-26.1799-220.89
	c-6.15-48.41-14.4801-96.51-21.41-144.81c-1.4501-11.29-3.27-22.65-2.42-34.07c0.42-12.41,2.99-24.62,3.66-37.01
	c0.47-4.79-2.13-9.17-5.13-12.67c-2.8101-3.06-7.23-5.84-11.4301-3.84c-17.4399,6.44-33.6399,15.82-51.04,22.36
	c-9.3799,3.84-19.94,1.68-28.99-2.05c-10.16-3.65-19.02-9.97-28.1-15.65C949.6,605,941.75,599.18,933.54,594.02 M728.22,598.8
	c1.51,3.16,6.6201,4.88,5.7,8.85l-1.1,0.68c1.42,20.57,2.88,41.15,5.08,61.65c0.42,6.19,0.55,12.42,1.64,18.55
	c0.37,1.23,0.43,2.99,1.92,3.46c6.36-7.35,11.3-15.77,16.41-23.99c6.4-10.86,12.99-21.66,18.21-33.15
	c2.32-6.74,5.96-13.62,4.81-20.95c-0.6-3.31-3.9-4.86-6.78-5.76c-9.81-3.14-20.14-3.96-30.26-5.6
	C738.57,601.58,733.5,599.72,728.22,598.8z"/>
<path stroke="#000000" stroke-width="0.0938" d="M175.25,1478.98c0.44-0.41,1.33-1.21,1.78-1.62c5.79,1.02,11.23,3.85,16.87,5.61
	c1.73,0.88,4.67,1.02,4.72,3.5601c-3.38,0.14-5.89-2.28-9.02-3.05c-3.13-0.95-6.11-2.5699-9.39-2.96c0.07,0.21,0.21,0.63,0.28,0.84
	c4.36,3.49,8.7,7.01,12.96,10.64h-3.67C185.06,1487.52,179.5,1483.95,175.25,1478.98z"/>
</svg>
